<?xml version="1.0" encoding="utf-8"?>
<!-- Generator: Adobe Illustrator 16.0.0, SVG Export Plug-In . SVG Version: 6.00 Build 0)  -->
<!DOCTYPE svg PUBLIC "-//W3C//DTD SVG 1.1//EN" "http://www.w3.org/Graphics/SVG/1.1/DTD/svg11.dtd">
<svg version="1.1" id="Layer_1" xmlns="http://www.w3.org/2000/svg" xmlns:xlink="http://www.w3.org/1999/xlink" x="0px" y="0px"
	 width="49.91px" height="45.098px" viewBox="0 0 49.91 45.098" enable-background="new 0 0 49.91 45.098" xml:space="preserve">
<path fill="#751827" d="M40.298,34.004l-3.83,1.713l-5.725-12.689H17.223l-0.157-2.841h9.885v-3.729H16.859L16.393,8.04
	c1.477-0.668,2.504-2.127,2.504-3.824C18.897,1.887,16.97,0,14.59,0c-2.378,0-4.306,1.887-4.306,4.215
	c0,1.646,0.966,3.067,2.371,3.761l1.039,18.782h14.642l6.262,13.882l7.225-3.229L40.298,34.004z"/>
<path fill="#751827" d="M17.621,41.367c-6.086,0-11.038-4.951-11.038-11.037c0-3.491,1.63-6.605,4.168-8.63l-0.239-4.311
	c-4.561,2.518-7.659,7.371-7.659,12.939c0,8.143,6.625,14.768,14.768,14.768c5.539,0,10.373-3.064,12.9-7.589l-2.139-4.737
	C27.269,37.686,22.868,41.367,17.621,41.367"/>
<path fill="#FFFFFF" d="M17.468,38.094c-0.662,0-1.296-0.263-1.765-0.729L0.73,22.39c-0.975-0.974-0.975-2.555,0-3.529
	c0.975-0.974,2.555-0.974,3.529,0L17.467,32.07L45.649,3.888c0.976-0.975,2.556-0.975,3.529,0s0.974,2.554,0,3.529L19.232,37.363
	C18.765,37.831,18.13,38.094,17.468,38.094z"/>
</svg>
